<?xml version="1.0" encoding="UTF-8"?>
<svg version="1.1" xmlns="http://www.w3.org/2000/svg" width="513" height="357">
<path d="M0 0 C169.29 0 338.58 0 513 0 C513 117.81 513 235.62 513 357 C343.71 357 174.42 357 0 357 C0 239.19 0 121.38 0 0 Z " fill="#CE132A" transform="translate(0,0)"/>
<path d="M0 0 C76.23 0 152.46 0 231 0 C231 47.19 231 94.38 231 143 C154.77 143 78.54 143 0 143 C0 95.81 0 48.62 0 0 Z " fill="#FEFCFD" transform="translate(0,0)"/>
<path d="M0 0 C75.9 0 151.8 0 230 0 C230 47.19 230 94.38 230 143 C154.1 143 78.2 143 0 143 C0 95.81 0 48.62 0 0 Z " fill="#FDFCFD" transform="translate(283,0)"/>
<path d="M0 0 C76.23 0 152.46 0 231 0 C231 46.86 231 93.72 231 142 C154.77 142 78.54 142 0 142 C0 95.14 0 48.28 0 0 Z " fill="#FDFCFD" transform="translate(0,215)"/>
<path d="M0 0 C75.9 0 151.8 0 230 0 C230 46.86 230 93.72 230 142 C154.1 142 78.2 142 0 142 C0 95.14 0 48.28 0 0 Z " fill="#FEFCFD" transform="translate(283,215)"/>
<path d="M0 0 C51.15 0 102.3 0 155 0 C149.37388724 4.50089021 149.37388724 4.50089021 146.49609375 6.5234375 C145.84858154 6.97960449 145.20106934 7.43577148 144.53393555 7.90576172 C143.84211182 8.39061035 143.15028809 8.87545898 142.4375 9.375 C141.69862549 9.89465332 140.95975098 10.41430664 140.19848633 10.94970703 C137.80042095 12.63518582 135.40046947 14.31794717 133 16 C132.20013672 16.56074219 131.40027344 17.12148438 130.57617188 17.69921875 C125.56911234 21.20857724 120.55922743 24.71388374 115.54833984 28.21777344 C111.3645694 31.14376733 107.18235476 34.0719831 103 37 C101.33334098 38.16667759 99.66667431 39.33334425 98 40.5 C96.7625 41.36625 96.7625 41.36625 95.5 42.25 C93 44 90.5 45.75 88 47.5 C87.1752417 48.07733887 86.3504834 48.65467773 85.50073242 49.24951172 C83.83165493 50.41784967 82.16254678 51.58614384 80.4934082 52.75439453 C76.36337662 55.64513489 72.23385554 58.53659854 68.10546875 61.4296875 C59.24792305 67.63561124 50.38029227 73.8266617 41.5 80 C34.01740608 85.20342025 26.53529249 90.40750975 19.0625 95.625 C18.26457031 96.18058594 17.46664063 96.73617187 16.64453125 97.30859375 C12.21619261 100.40391208 7.88066528 103.57963308 3.62670898 106.91162109 C2 108 2 108 0 108 C0 72.36 0 36.72 0 0 Z " fill="#00237C" transform="translate(300,0)"/>
<path d="M0 0 C50.82 0 101.64 0 154 0 C154 35.64 154 71.28 154 108 C150.07557722 106.03778861 146.58787994 103.74601278 143 101.25 C142.30358398 100.76829346 141.60716797 100.28658691 140.88964844 99.7902832 C132.75925813 94.15790251 124.66161753 88.47832572 116.56445312 82.79833984 C112.37826879 79.86275018 108.18902323 76.93153649 104 74 C99.03435462 70.52458046 94.06904574 67.04868566 89.10546875 63.5703125 C80.24792374 57.36438924 71.38041071 51.17316719 62.5 45 C53.63114913 38.83486856 44.77481242 32.65224209 35.9296875 26.453125 C32.52078749 24.06402808 29.10901339 21.67910689 25.6953125 19.296875 C3.67722838 3.92660148 3.67722838 3.92660148 0 1 C0 0.67 0 0.34 0 0 Z " fill="#01247D" transform="translate(60,0)"/>
<path d="M0 0 C3.92442278 1.96221139 7.41212006 4.25398722 11 6.75 C11.69641602 7.23170654 12.39283203 7.71341309 13.11035156 8.2097168 C21.24074187 13.84209749 29.33838247 19.52167428 37.43554688 25.20166016 C41.62173121 28.13724982 45.81097677 31.06846351 50 34 C54.96564538 37.47541954 59.93095426 40.95131434 64.89453125 44.4296875 C73.75207626 50.63561076 82.61958929 56.82683281 91.5 63 C101.18218445 69.73051567 110.84779687 76.48430377 120.50439453 83.25146484 C124.87685562 86.31501076 129.25103891 89.37609628 133.625 92.4375 C138.323815 95.72662276 138.323815 95.72662276 140.62207031 97.33935547 C142.34582018 98.54314875 144.07506603 99.73908453 145.80761719 100.93017578 C146.72446289 101.56294434 147.64130859 102.19571289 148.5859375 102.84765625 C149.85123291 103.71596069 149.85123291 103.71596069 151.14208984 104.60180664 C151.7552002 105.06321045 152.36831055 105.52461426 153 106 C153 106.33 153 106.66 153 107 C102.51 107 52.02 107 0 107 C0 71.69 0 36.38 0 0 Z " fill="#01247D" transform="translate(300,250)"/>
<path d="M0 0 C0 35.31 0 70.62 0 107 C-50.49 107 -100.98 107 -153 107 C-149.5104979 103.5104979 -146.05717426 100.84330676 -142 98.125 C-140.55671073 97.14538661 -139.1140305 96.16487547 -137.671875 95.18359375 C-136.91068359 94.66651855 -136.14949219 94.14944336 -135.36523438 93.61669922 C-131.30346342 90.84037312 -127.27737105 88.01339368 -123.25 85.1875 C-122.40864502 84.59775391 -121.56729004 84.00800781 -120.70043945 83.40039062 C-118.98387832 82.19702146 -117.26748875 80.99340753 -115.55126953 79.78955078 C-103.24308113 71.15615164 -90.91832012 62.54709187 -78.57373047 53.96582031 C-69.85313321 47.90199382 -61.15003556 41.81341689 -52.45166016 35.71777344 C-49.1364128 33.39492138 -45.82010021 31.07359296 -42.50366211 28.75244141 C-40.84416695 27.5908757 -39.18482269 26.42909437 -37.52563477 25.26708984 C-33.21269688 22.24680142 -28.89729951 19.23011433 -24.578125 16.21875 C-23.68609375 15.59613281 -22.7940625 14.97351563 -21.875 14.33203125 C-20.18308061 13.15121251 -18.49042753 11.971444 -16.796875 10.79296875 C-12.31474084 7.66294506 -7.92381905 4.4562718 -3.62011719 1.08398438 C-2 0 -2 0 0 0 Z " fill="#01247D" transform="translate(214,250)"/>
<path d="M0 0 C0.83920486 0.0028299 1.67840973 0.00565979 2.54304504 0.00857544 C5.22285228 0.01976865 7.90232506 0.04487149 10.58203125 0.0703125 C12.39908371 0.08034342 14.21614142 0.08946907 16.03320312 0.09765625 C20.487108 0.11970516 24.94076292 0.15422899 29.39453125 0.1953125 C26.56415659 3.11215295 23.83453421 5.77565409 20.453125 8.03515625 C19.71521729 8.53329834 18.97730957 9.03144043 18.21704102 9.54467773 C17.03646118 10.33080444 17.03646118 10.33080444 15.83203125 11.1328125 C14.12042303 12.2880694 12.40950745 13.44435303 10.69921875 14.6015625 C9.82104492 15.19453125 8.94287109 15.7875 8.03808594 16.3984375 C3.81544073 19.26865072 -0.36471107 22.19851079 -4.54296875 25.1328125 C-5.37062744 25.71345459 -6.19828613 26.29409668 -7.05102539 26.89233398 C-8.73068695 28.07097817 -10.41013033 29.24993334 -12.08935547 30.42919922 C-16.25838737 33.35553114 -20.43215395 36.27509349 -24.60546875 39.1953125 C-26.27215836 40.36194639 -27.93882502 41.52861307 -29.60546875 42.6953125 C-39.60546875 49.6953125 -49.60546875 56.6953125 -59.60546875 63.6953125 C-60.43022705 64.27265137 -61.25498535 64.84999023 -62.10473633 65.44482422 C-63.77381382 66.61316217 -65.44292197 67.78145634 -67.11206055 68.94970703 C-71.24209213 71.84044739 -75.37161321 74.73191104 -79.5 77.625 C-88.35754544 83.83092356 -97.22513007 90.02204122 -106.10546875 96.1953125 C-113.73555834 101.50053349 -121.36277443 106.8098038 -128.98046875 112.1328125 C-129.83705078 112.73029297 -130.69363281 113.32777344 -131.57617188 113.94335938 C-132.35669922 114.48927734 -133.13722656 115.03519531 -133.94140625 115.59765625 C-134.6276709 116.07710693 -135.31393555 116.55655762 -136.02099609 117.05053711 C-137.56615283 118.10297834 -137.56615283 118.10297834 -138.60546875 119.1953125 C-141.48980695 119.28396458 -144.35009033 119.31052546 -147.234375 119.29296875 C-148.53072121 119.29084633 -148.53072121 119.29084633 -149.85325623 119.28868103 C-152.62486167 119.28306489 -155.39638755 119.27050969 -158.16796875 119.2578125 C-160.04231655 119.25279958 -161.9166656 119.24823631 -163.79101562 119.24414062 C-168.39586419 119.23309022 -173.00065296 119.2158148 -177.60546875 119.1953125 C-174.28188072 115.77430199 -170.74393119 113.0926957 -166.79296875 110.4453125 C-165.35365447 109.46820197 -163.91488511 108.49028844 -162.4765625 107.51171875 C-161.69651855 106.9820752 -160.91647461 106.45243164 -160.11279297 105.90673828 C-155.50606994 102.76232461 -150.93210656 99.57078293 -146.35546875 96.3828125 C-145.37562012 95.7007373 -144.39577148 95.01866211 -143.38623047 94.31591797 C-134.59931604 88.1966917 -125.82599912 82.0581307 -117.05712891 75.91308594 C-112.07212619 72.42030769 -107.08491494 68.9306834 -102.09814453 65.44042969 C-97.96837216 62.54983058 -93.83908405 59.65854561 -89.7109375 56.765625 C-79.88046368 49.87803188 -70.03504579 43.01236872 -60.17919922 36.16113281 C-50.63934174 29.52763756 -41.12087073 22.86381802 -31.60546875 16.1953125 C-27.91827679 13.61153915 -24.23071148 11.02829967 -20.54296875 8.4453125 C-19.69130127 7.84831543 -18.83963379 7.25131836 -17.9621582 6.63623047 C-16.77819458 5.80696045 -16.77819458 5.80696045 -15.5703125 4.9609375 C-14.87542725 4.47399414 -14.18054199 3.98705078 -13.46459961 3.48535156 C-8.74300365 0.2090662 -5.62225651 -0.07114716 0 0 Z " fill="#CF152B" transform="translate(482.60546875,-0.1953125)"/>
<path d="M0 0 C1.64510941 0.00015915 3.29022379 0.00585551 4.93530273 0.01586914 C6.23164894 0.01799156 6.23164894 0.01799156 7.55418396 0.02015686 C10.32578941 0.025773 13.09731528 0.0383282 15.86889648 0.05102539 C17.74324428 0.05603831 19.61759334 0.06060158 21.49194336 0.06469727 C26.09679192 0.07574767 30.70158069 0.09302309 35.30639648 0.11352539 C31.93318397 3.59009284 28.31879506 6.30021835 24.30639648 8.98852539 C22.86310722 9.96813878 21.42042699 10.94864992 19.97827148 11.92993164 C19.21708008 12.44700684 18.45588867 12.96408203 17.67163086 13.49682617 C13.6098599 16.27315227 9.58376753 19.10013171 5.55639648 21.92602539 C4.7150415 22.51577148 3.87368652 23.10551758 3.00683594 23.71313477 C1.2902748 24.91650393 -0.42611477 26.12011786 -2.14233398 27.32397461 C-14.45052238 35.95737375 -26.7752834 44.56643352 -39.11987305 53.14770508 C-47.8404703 59.21153157 -56.54356795 65.30010851 -65.24194336 71.39575195 C-70.22694608 74.8885302 -75.21415733 78.37815449 -80.20092773 81.8684082 C-84.3307001 84.75900731 -88.45998821 87.65029228 -92.58813477 90.54321289 C-94.22741921 91.69170531 -95.86674216 92.84014276 -97.50610352 93.98852539 C-98.30959229 94.55144287 -99.11308105 95.11436035 -99.94091797 95.69433594 C-104.63073087 98.97743588 -109.3272488 102.25066442 -114.02954102 105.51586914 C-115.61545044 106.61729248 -115.61545044 106.61729248 -117.23339844 107.7409668 C-119.30321807 109.17778412 -121.37367538 110.61368335 -123.44482422 112.04858398 C-124.37641357 112.69520996 -125.30800293 113.34183594 -126.26782227 114.00805664 C-127.09886475 114.58402588 -127.92990723 115.15999512 -128.78613281 115.75341797 C-130.60942293 116.97427431 -130.60942293 116.97427431 -131.69360352 118.11352539 C-134.57794172 118.20217747 -137.43822509 118.22873835 -140.32250977 118.21118164 C-141.61885597 118.20905922 -141.61885597 118.20905922 -142.94139099 118.20689392 C-145.71299644 118.20127778 -148.48452232 118.18872258 -151.25610352 118.17602539 C-153.13045131 118.17101247 -155.00480037 118.1664492 -156.87915039 118.16235352 C-161.48399895 118.15130311 -166.08878773 118.13402769 -170.69360352 118.11352539 C-168.22640351 115.54980063 -165.803399 113.35285833 -162.84985352 111.37133789 C-162.10872314 110.86997314 -161.36759277 110.3686084 -160.60400391 109.85205078 C-159.80857178 109.3195874 -159.01313965 108.78712402 -158.19360352 108.23852539 C-156.47290324 107.07411809 -154.75287223 105.90872129 -153.03344727 104.74243164 C-152.14898926 104.14317871 -151.26453125 103.54392578 -150.35327148 102.92651367 C-146.12833267 100.04654345 -141.94094146 97.11384113 -137.75610352 94.17602539 C-136.92852539 93.59546387 -136.10094727 93.01490234 -135.24829102 92.41674805 C-133.56855949 91.23800621 -131.88903471 90.0589697 -130.2097168 88.87963867 C-126.04068495 85.95330679 -121.86693728 83.03371721 -117.69360352 80.11352539 C-112.7279355 76.63813822 -107.76264924 73.16221104 -102.79907227 69.68383789 C-92.96859845 62.79624477 -83.12318055 55.93058161 -73.26733398 49.0793457 C-64.54673673 43.01551921 -55.84363908 36.92694228 -47.14526367 30.83129883 C-43.82944301 28.50804508 -40.51255298 26.18632086 -37.19555664 23.86474609 C-35.54178885 22.70720547 -33.88814089 21.54949363 -32.23461914 20.39160156 C-27.83381698 17.31008184 -23.43101504 14.23146611 -19.02563477 11.15649414 C-18.10202148 10.51131836 -17.1784082 9.86614258 -16.22680664 9.20141602 C-14.44352362 7.95580627 -12.65968895 6.71098584 -10.87524414 5.46704102 C-9.68125 4.63269531 -9.68125 4.63269531 -8.46313477 3.78149414 C-7.40509644 3.04322388 -7.40509644 3.04322388 -6.32568359 2.29003906 C-3.28914117 0.10109397 -3.28914117 0.10109397 0 0 Z " fill="#CF152B" transform="translate(173.693603515625,238.886474609375)"/>
<path d="M0 0 C36.96 0 73.92 0 112 0 C106.37864534 5.62135466 106.37864534 5.62135466 103.71484375 7.40234375 C103.1125293 7.81009033 102.51021484 8.21783691 101.88964844 8.63793945 C100.92333496 9.28122192 100.92333496 9.28122192 99.9375 9.9375 C98.50329113 10.90794571 97.06972732 11.87934524 95.63671875 12.8515625 C94.88181152 13.36235352 94.1269043 13.87314453 93.34912109 14.39941406 C89.2893673 17.16554853 85.27077401 19.99013904 81.25 22.8125 C80.41073975 23.40087646 79.57147949 23.98925293 78.70678711 24.59545898 C76.99251297 25.79729384 75.27840227 26.99936186 73.56445312 28.20166016 C69.37826875 31.13724984 65.18900408 34.06843609 61 37 C59.33331803 38.16664481 57.66665138 39.3333115 56 40.5 C52.66666667 42.83333333 49.33333333 45.16666667 46 47.5 C45.1742749 48.07806396 44.3485498 48.65612793 43.49780273 49.25170898 C41.83867454 50.4129852 40.17933361 51.57395755 38.51977539 52.73461914 C34.23593458 55.73124513 29.9564272 58.73378912 25.68359375 61.74609375 C24.80509766 62.36419922 23.92660156 62.98230469 23.02148438 63.61914062 C21.36643013 64.78380843 19.71266161 65.95030678 18.06054688 67.11914062 C12.13967991 71.28123529 6.12480676 75.1023957 0 79 C0 52.93 0 26.86 0 0 Z " fill="#03257D" transform="translate(0,239)"/>
<path d="M0 0 C6.93261667 4.41166515 13.74181666 8.82545533 20.4375 13.5625 C22.18615252 14.79303326 23.93485177 16.02350012 25.68359375 17.25390625 C26.56515137 17.87539551 27.44670898 18.49688477 28.35498047 19.13720703 C32.56332527 22.10099426 36.78198258 25.05000357 41 28 C42.66672024 29.16659013 44.33338681 30.33325694 46 31.5 C46.825 32.0775 47.65 32.655 48.5 33.25 C56 38.5 56 38.5 58.50024414 40.25024414 C60.16600525 41.41622811 61.83185804 42.5820811 63.49780273 43.74780273 C67.67908827 46.67384453 71.85872802 49.60218484 76.03515625 52.53515625 C84.53680347 58.50245272 93.0576876 64.43975211 101.625 70.3125 C102.43718994 70.8701001 103.24937988 71.4277002 104.08618164 72.00219727 C104.83375732 72.51322998 105.58133301 73.0242627 106.3515625 73.55078125 C107.00979004 74.00106689 107.66801758 74.45135254 108.34619141 74.9152832 C110.01679505 76.05697728 110.01679505 76.05697728 112 77 C112 77.66 112 78.32 112 79 C75.04 79 38.08 79 0 79 C0 52.93 0 26.86 0 0 Z " fill="#03257D" transform="translate(0,40)"/>
<path d="M0 0 C0 25.74 0 51.48 0 78 C-36.63 78 -73.26 78 -111 78 C-111 77.34 -111 76.68 -111 76 C-109.296875 74.765625 -109.296875 74.765625 -106.75 73.25 C-101.21755665 69.82852735 -95.88149834 66.18156493 -90.5625 62.4375 C-89.70430664 61.83389648 -88.84611328 61.23029297 -87.96191406 60.60839844 C-86.18917981 59.36048252 -84.41688586 58.11194092 -82.64501953 56.86279297 C-78.43667485 53.89900582 -74.21803647 50.94996902 -70 48 C-68.32936584 46.83081667 -66.658793 45.66154572 -64.98828125 44.4921875 C-64.16279785 43.91436523 -63.33731445 43.33654297 -62.48681641 42.74121094 C-60.02595151 41.01817064 -57.56563664 39.2943478 -55.10546875 37.5703125 C-42.42365773 28.68471809 -29.72165944 19.82845273 -17 11 C-15.73494629 10.12093994 -15.73494629 10.12093994 -14.44433594 9.22412109 C-12.17299997 7.6468299 -9.89947045 6.07276657 -7.625 4.5 C-6.95887695 4.03698486 -6.29275391 3.57396973 -5.60644531 3.09692383 C-1.11521193 0 -1.11521193 0 0 0 Z " fill="#03257D" transform="translate(513,41)"/>
<path d="M0 0 C36.63 0 73.26 0 111 0 C111 25.74 111 51.48 111 78 C103.12698413 73.50113379 103.12698413 73.50113379 99.64453125 71.0390625 C98.86811279 70.49266113 98.09169434 69.94625977 97.29174805 69.38330078 C96.47359619 68.80306152 95.65544434 68.22282227 94.8125 67.625 C93.0234848 66.3645162 91.23442097 65.10410141 89.4453125 63.84375 C88.0845459 62.88275391 88.0845459 62.88275391 86.69628906 61.90234375 C82.53420559 58.96582126 78.36109085 56.04513341 74.1875 53.125 C73.37128174 52.55346191 72.55506348 51.98192383 71.71411133 51.39306641 C65.31805039 46.91625839 58.91044255 42.45618282 52.5 38 C44.45293414 32.40612776 36.41189447 26.80388495 28.3894043 21.17480469 C24.05060711 18.13086387 19.70341504 15.09993512 15.34375 12.0859375 C14.41844482 11.44414551 13.49313965 10.80235352 12.53979492 10.14111328 C10.75594181 8.90418497 8.96973472 7.67064285 7.1809082 6.44091797 C6.38515381 5.88807129 5.58939941 5.33522461 4.76953125 4.765625 C4.06417236 4.27868164 3.35881348 3.79173828 2.63208008 3.29003906 C1 2 1 2 0 0 Z " fill="#03257D" transform="translate(402,239)"/>
<path d="M0 0 C2.77878287 1.32770924 5.30646109 2.80359341 7.84375 4.546875 C8.95544556 5.30859009 8.95544556 5.30859009 10.08959961 6.08569336 C10.88503174 6.63491455 11.68046387 7.18413574 12.5 7.75 C13.33732666 8.32564697 14.17465332 8.90129395 15.03735352 9.49438477 C23.55749262 15.36243924 32.03081158 21.29726937 40.49707031 27.24267578 C44.59995637 30.12334042 48.7059508 32.99956062 52.8125 35.875 C53.62968506 36.44726318 54.44687012 37.01952637 55.28881836 37.60913086 C61.68405511 42.08498856 68.09055905 46.54451343 74.5 51 C84.19686646 57.74072179 93.87709183 64.5048139 103.54833984 71.28222656 C108.53250695 74.77441933 113.51857588 78.26389789 118.50512695 81.75268555 C122.64952118 84.65266992 126.79182887 87.55554013 130.9296875 90.46484375 C139.95520558 96.80587161 149.01550874 103.09256256 158.125 109.3125 C159.08003418 109.96532959 160.03506836 110.61815918 161.01904297 111.29077148 C161.90221191 111.89219971 162.78538086 112.49362793 163.6953125 113.11328125 C164.47922363 113.64735596 165.26313477 114.18143066 166.07080078 114.73168945 C167.96723703 116.03264304 167.96723703 116.03264304 170 117 C170 117.66 170 118.32 170 119 C131.98980855 122.09001791 131.98980855 122.09001791 116.66455078 109.68017578 C114.9267534 108.19796531 113.20614264 106.69533848 111.50439453 105.171875 C107.51873775 101.71541149 103.17543287 98.82904709 98.8125 95.875 C97.16717533 94.72695569 95.5239273 93.57592926 93.8828125 92.421875 C93.07618164 91.85662109 92.26955078 91.29136719 91.43847656 90.70898438 C89.81282552 89.56966146 88.18717448 88.43033854 86.56152344 87.29101562 C76.8858601 80.5107066 67.20119987 73.74373413 57.5 67 C45.15163261 58.41610236 32.83192119 49.79164644 20.51953125 41.15625 C19.61678467 40.52348145 18.71403809 39.89071289 17.78393555 39.23876953 C16.06232337 38.03201282 14.34110604 36.82469254 12.62036133 35.61669922 C11.84072021 35.07029785 11.0610791 34.52389648 10.2578125 33.9609375 C9.52804199 33.43371094 8.79827148 32.90648437 8.04638672 32.36328125 C5.83965932 30.80586121 5.83965932 30.80586121 2.453125 29.4609375 C-0.65112732 26.34679903 -0.42802835 25.02398274 -0.5859375 20.703125 C-0.54607039 18.21807498 -0.47453921 15.73337571 -0.375 13.25 C-0.34792969 11.98027344 -0.32085938 10.71054688 -0.29296875 9.40234375 C-0.2222359 6.26652094 -0.12356492 3.13411337 0 0 Z " fill="#CF152B" transform="translate(0,0)"/>
<path d="M0 0 C5.38923954 -0.17416748 10.77681155 -0.30058809 16.16821289 -0.38452148 C17.99858159 -0.41953779 19.82875713 -0.46716859 21.65844727 -0.52807617 C38.82691505 -1.08491664 38.82691505 -1.08491664 44.08984375 3.0625 C45.40467476 4.3635339 46.70795073 5.67633899 48 7 C49.67460862 8.24273148 51.37709372 9.44853119 53.1015625 10.62109375 C53.99190186 11.23807129 54.88224121 11.85504883 55.79956055 12.49072266 C57.19815308 13.45437744 57.19815308 13.45437744 58.625 14.4375 C60.6654048 15.85020233 62.7057682 17.26296446 64.74609375 18.67578125 C65.78233887 19.3920166 66.81858398 20.10825195 67.88623047 20.84619141 C72.82635971 24.26330134 77.75700142 27.69401528 82.6875 31.125 C83.64068115 31.78798096 84.5938623 32.45096191 85.57592773 33.1340332 C94.24559621 39.16603956 102.89908227 45.22100388 111.54833984 51.28222656 C114.8631067 53.60474196 118.17894587 55.92572368 121.49487305 58.24658203 C123.15918988 59.41149028 124.82341579 60.57652843 126.48754883 61.74169922 C130.72722344 64.71009523 134.96806775 67.67679742 139.2109375 70.640625 C146.88826918 76.00530749 154.56160408 81.37483527 162.1875 86.8125 C162.76999512 87.22725586 163.35249023 87.64201172 163.95263672 88.06933594 C167.87614196 90.87614196 167.87614196 90.87614196 169 92 C169.08748207 93.92667507 169.10697334 95.85651861 169.09765625 97.78515625 C169.09443359 98.95498047 169.09121094 100.12480469 169.08789062 101.33007812 C169.07951172 102.56177734 169.07113281 103.79347656 169.0625 105.0625 C169.05798828 106.29806641 169.05347656 107.53363281 169.04882812 108.80664062 C169.03699608 111.87114117 169.02051173 114.93554721 169 118 C165.88486149 116.8330317 163.19343512 115.61816141 160.49609375 113.671875 C159.84858154 113.2092627 159.20106934 112.74665039 158.53393555 112.27001953 C157.84211182 111.76841309 157.15028809 111.26680664 156.4375 110.75 C154.91181879 109.65835022 153.3857617 108.56722562 151.859375 107.4765625 C151.06337891 106.90583008 150.26738281 106.33509766 149.44726562 105.74707031 C145.38090173 102.84414733 141.2836797 99.98561995 137.1875 97.125 C135.49343426 95.94018326 133.79942426 94.75528683 132.10546875 93.5703125 C131.26161621 92.98024414 130.41776367 92.39017578 129.54833984 91.78222656 C125.36456938 88.85623266 121.18237406 85.92798936 117 83 C116.17306641 82.42121094 115.34613281 81.84242188 114.49414062 81.24609375 C110.36384984 78.35521213 106.23409577 75.46356981 102.10546875 72.5703125 C93.24792374 66.36438924 84.38041071 60.17316719 75.5 54 C65.80313354 47.25927821 56.12290817 40.4951861 46.45166016 33.71777344 C43.1361179 31.39471475 39.81953988 29.07313794 36.50268555 26.75195312 C34.84620042 25.59236506 33.19010719 24.43221694 31.53442383 23.27148438 C27.1773762 20.21789327 22.81295493 17.17560636 18.4375 14.1484375 C17.52742188 13.51679688 16.61734375 12.88515625 15.6796875 12.234375 C13.93720762 11.02530733 12.19252875 9.81940052 10.4453125 8.6171875 C9.65898437 8.070625 8.87265625 7.5240625 8.0625 6.9609375 C7.37285156 6.48446777 6.68320312 6.00799805 5.97265625 5.51708984 C3.78919456 3.83787809 1.90795688 1.98318672 0 0 Z " fill="#CF152B" transform="translate(344,239)"/>
<path d="M0 0 C0.66 0 1.32 0 2 0 C2.33 34.32 2.66 68.64 3 104 C3.66 104.33 4.32 104.66 5 105 C3.625 106.5 3.625 106.5 2 108 C1.34 108 0.68 108 0 108 C0 72.36 0 36.72 0 0 Z " fill="#182C82" transform="translate(300,0)"/>
</svg>
